<svg width="99" height="24" viewBox="0 0 99 24" fill="none" xmlns="http://www.w3.org/2000/svg">
<g clip-path="url(#clip0_108_57)">
<rect y="4" width="16" height="16" rx="8" fill="#0FC281"/>
<rect x="2.07422" y="6.07227" width="11.8534" height="11.8534" rx="5.9267" fill="#2EE5A3"/>
<rect x="4.20898" y="8.20898" width="7.60247" height="7.60247" rx="3.80123" fill="#5CFFC4"/>
<rect x="2.07422" y="6.07227" width="11.8534" height="11.8534" rx="5.9267" fill="#2EE5A3"/>
<rect x="4.20898" y="8.20898" width="7.60247" height="7.60247" rx="3.80123" fill="#5CFFC4"/>
</g>
<path d="M24.68 19V6.54H20.22V5H30.82V6.54H26.36V19H24.68ZM32.4352 19V5H34.0352V19H32.4352ZM39.4752 19V13.88H41.0752V19H39.4752ZM39.4752 13.88C39.4752 12.8933 39.3552 12.14 39.1152 11.62C38.8885 11.1 38.5752 10.7467 38.1752 10.56C37.7752 10.36 37.3218 10.26 36.8152 10.26C35.9352 10.26 35.2485 10.5733 34.7552 11.2C34.2752 11.8133 34.0352 12.6867 34.0352 13.82H33.2552C33.2552 12.7667 33.4085 11.86 33.7152 11.1C34.0352 10.34 34.4885 9.76 35.0752 9.36C35.6618 8.96 36.3685 8.76 37.1952 8.76C37.9685 8.76 38.6485 8.92 39.2352 9.24C39.8218 9.54667 40.2752 10.04 40.5952 10.72C40.9285 11.4 41.0885 12.2933 41.0752 13.4V13.88H39.4752ZM47.9675 19.24C46.9942 19.24 46.1342 19.02 45.3875 18.58C44.6408 18.1267 44.0542 17.5067 43.6275 16.72C43.2142 15.9333 43.0075 15.0267 43.0075 14C43.0075 12.9733 43.2142 12.0667 43.6275 11.28C44.0542 10.4933 44.6342 9.88 45.3675 9.44C46.1142 8.98667 46.9675 8.76 47.9275 8.76C48.8608 8.76 49.6675 8.99333 50.3475 9.46C51.0275 9.91333 51.5542 10.5533 51.9275 11.38C52.3008 12.2067 52.4875 13.18 52.4875 14.3H44.2275L44.6275 13.96C44.6275 14.76 44.7675 15.4467 45.0475 16.02C45.3408 16.5933 45.7475 17.0333 46.2675 17.34C46.7875 17.6333 47.3808 17.78 48.0475 17.78C48.7542 17.78 49.3475 17.6133 49.8275 17.28C50.3208 16.9467 50.7008 16.5067 50.9675 15.96L52.3475 16.66C52.0942 17.18 51.7542 17.6333 51.3275 18.02C50.9142 18.4067 50.4208 18.7067 49.8475 18.92C49.2875 19.1333 48.6608 19.24 47.9675 19.24ZM44.7275 13.28L44.3075 12.96H51.2075L50.7875 13.3C50.7875 12.66 50.6608 12.1067 50.4075 11.64C50.1542 11.1733 49.8142 10.8133 49.3875 10.56C48.9608 10.3067 48.4675 10.18 47.9075 10.18C47.3608 10.18 46.8408 10.3067 46.3475 10.56C45.8675 10.8133 45.4742 11.1733 45.1675 11.64C44.8742 12.0933 44.7275 12.64 44.7275 13.28ZM58.2655 19.24C57.2921 19.24 56.5388 18.9867 56.0055 18.48C55.4721 17.9733 55.2055 17.26 55.2055 16.34V5.88H56.8055V16.18C56.8055 16.6867 56.9388 17.08 57.2055 17.36C57.4855 17.6267 57.8721 17.76 58.3655 17.76C58.5255 17.76 58.6788 17.74 58.8255 17.7C58.9855 17.6467 59.1921 17.5267 59.4455 17.34L60.0655 18.64C59.7188 18.8667 59.4055 19.02 59.1255 19.1C58.8455 19.1933 58.5588 19.24 58.2655 19.24ZM53.4655 10.42V9H59.8055V10.42H53.4655ZM68.1655 19L68.0855 17.36V13.72C68.0855 12.9333 67.9988 12.2867 67.8255 11.78C67.6521 11.26 67.3788 10.8667 67.0055 10.6C66.6321 10.3333 66.1455 10.2 65.5455 10.2C64.9988 10.2 64.5255 10.3133 64.1255 10.54C63.7388 10.7533 63.4188 11.1 63.1655 11.58L61.7255 11.02C61.9788 10.5533 62.2855 10.1533 62.6455 9.82C63.0055 9.47333 63.4255 9.21333 63.9055 9.04C64.3855 8.85333 64.9321 8.76 65.5455 8.76C66.4788 8.76 67.2455 8.94667 67.8455 9.32C68.4588 9.68 68.9188 10.22 69.2255 10.94C69.5321 11.6467 69.6788 12.5267 69.6655 13.58L69.6455 19H68.1655ZM65.1655 19.24C63.9921 19.24 63.0721 18.9733 62.4055 18.44C61.7521 17.8933 61.4255 17.14 61.4255 16.18C61.4255 15.1667 61.7588 14.3933 62.4255 13.86C63.1055 13.3133 64.0521 13.04 65.2655 13.04H68.1255V14.38H65.6255C64.6921 14.38 64.0255 14.5333 63.6255 14.84C63.2388 15.1467 63.0455 15.5867 63.0455 16.16C63.0455 16.68 63.2388 17.0933 63.6255 17.4C64.0121 17.6933 64.5521 17.84 65.2455 17.84C65.8188 17.84 66.3188 17.72 66.7455 17.48C67.1721 17.2267 67.4988 16.8733 67.7255 16.42C67.9655 15.9533 68.0855 15.4067 68.0855 14.78H68.7655C68.7655 16.14 68.4588 17.2267 67.8455 18.04C67.2321 18.84 66.3388 19.24 65.1655 19.24ZM78.6208 19.24C77.2741 19.24 76.0808 18.9333 75.0408 18.32C74.0008 17.7067 73.1874 16.8533 72.6008 15.76C72.0141 14.6667 71.7208 13.4133 71.7208 12C71.7208 10.5733 72.0074 9.32 72.5808 8.24C73.1674 7.14667 73.9741 6.29333 75.0008 5.68C76.0274 5.06667 77.2141 4.76 78.5608 4.76C79.9074 4.76 81.0941 5.07333 82.1208 5.7C83.1608 6.31333 83.9674 7.16667 84.5408 8.26C85.1141 9.34 85.4008 10.5867 85.4008 12C85.4008 13.4133 85.1141 14.6667 84.5408 15.76C83.9674 16.8533 83.1674 17.7067 82.1408 18.32C81.1274 18.9333 79.9541 19.24 78.6208 19.24ZM78.6208 17.7C79.6208 17.7 80.5008 17.46 81.2608 16.98C82.0208 16.4867 82.6141 15.8133 83.0408 14.96C83.4808 14.1067 83.7008 13.12 83.7008 12C83.7008 10.8933 83.4808 9.91333 83.0408 9.06C82.6008 8.19333 81.9941 7.52 81.2208 7.04C80.4608 6.54667 79.5741 6.3 78.5608 6.3C77.5608 6.3 76.6741 6.54667 75.9008 7.04C75.1274 7.52 74.5208 8.19333 74.0808 9.06C73.6408 9.91333 73.4208 10.8933 73.4208 12C73.4208 13.12 73.6408 14.1067 74.0808 14.96C74.5208 15.8133 75.1341 16.4867 75.9208 16.98C76.7074 17.46 77.6074 17.7 78.6208 17.7ZM92.6681 19.24C91.8948 19.24 91.2081 19.16 90.6081 19C90.0081 18.8267 89.4881 18.5933 89.0481 18.3C88.6081 17.9933 88.2481 17.66 87.9681 17.3C87.6881 16.9267 87.4815 16.5333 87.3481 16.12L88.9681 15.56C89.1681 16.1467 89.5681 16.66 90.1681 17.1C90.7815 17.5267 91.5281 17.74 92.4081 17.74C93.4881 17.74 94.3348 17.5267 94.9481 17.1C95.5615 16.6733 95.8681 16.1067 95.8681 15.4C95.8681 14.7467 95.5948 14.22 95.0481 13.82C94.5015 13.4067 93.7815 13.0867 92.8881 12.86L91.3481 12.46C90.7215 12.3 90.1415 12.0667 89.6081 11.76C89.0881 11.44 88.6681 11.04 88.3481 10.56C88.0415 10.0667 87.8881 9.48 87.8881 8.8C87.8881 7.53333 88.2948 6.54667 89.1081 5.84C89.9348 5.12 91.1215 4.76 92.6681 4.76C93.5881 4.76 94.3815 4.91333 95.0481 5.22C95.7148 5.51333 96.2548 5.89333 96.6681 6.36C97.0948 6.81333 97.3948 7.30667 97.5681 7.84L95.9681 8.4C95.7148 7.73333 95.2881 7.21333 94.6881 6.84C94.0881 6.45333 93.3615 6.26 92.5081 6.26C91.6148 6.26 90.9015 6.48 90.3681 6.92C89.8481 7.34667 89.5881 7.93333 89.5881 8.68C89.5881 9.32 89.7948 9.81333 90.2081 10.16C90.6215 10.4933 91.1615 10.74 91.8281 10.9L93.3681 11.28C94.7281 11.6 95.7681 12.1333 96.4881 12.88C97.2215 13.6133 97.5881 14.4067 97.5881 15.26C97.5881 15.9933 97.4015 16.6667 97.0281 17.28C96.6548 17.88 96.1015 18.36 95.3681 18.72C94.6481 19.0667 93.7481 19.24 92.6681 19.24Z" fill="#666666"/>
<defs>
<clipPath id="clip0_108_57">
<rect y="4" width="16" height="16" rx="8" fill="white"/>
</clipPath>
</defs>
</svg>
